<svg xmlns="http://www.w3.org/2000/svg" width="116" height="132" viewBox="0 0 116 132" fill="none"><path fill-rule="evenodd" clip-rule="evenodd" d="M58.0029 27.5801L25.1572 46.6245V80.0568L57.9998 98.9579L57.9998 98.9617L90.3826 78.0862V42.6324L58.1943 27.7148L58.1942 27.6689L58.0029 27.5801ZM0.0047631 31.0808L57.9947 0.944336L116 26.6558L115.995 95.0772L58.0245 131.92L57.9947 131.944V131.901L0.0047631 97.7075V31.0808Z" fill="#D49B20"></path><path fill-rule="evenodd" clip-rule="evenodd" d="M58.1939 27.3175L25.1572 46.4726V80.1573L25.2351 80.1103L58.0084 99.0507L90.7282 78.1839L90.5764 78.1005V42.5704L58.1943 27.563L58.1939 27.3175ZM58.0867 38.8072L80.1586 50.3553L80.0169 50.4419L79.9827 73.5542L58.0867 86.8681L35.9316 73.9424V51.6935L36.1226 51.7979L58.0867 38.8072Z" fill="#856623"></path><path fill-rule="evenodd" clip-rule="evenodd" d="M0 97.7077V31.0759L25.1243 46.4727L25.1148 80.0352L57.995 98.9579L58.0149 131.92L0 97.7077Z" fill="#AE6F1D"></path><path fill-rule="evenodd" clip-rule="evenodd" d="M115.991 95.0773V26.6535L90.3778 42.5678V78.0863L57.9853 98.9681V131.944L115.991 95.0773Z" fill="#AE6F1D"></path></svg>